<svg id="Layer_1" data-name="Layer 1" xmlns="http://www.w3.org/2000/svg" viewBox="0 0 566.92969 566.93019"><defs><style>.cls-1{fill:#080808;}.cls-1,.cls-2,.cls-3,.cls-4,.cls-5,.cls-6{fill-rule:evenodd;}.cls-2{fill:#fefefe;}.cls-3{fill:#d7dcdd;}.cls-4{fill:#e75f50;}.cls-5{fill:#4bb198;}.cls-6{fill:#f9d864;}</style></defs><path class="cls-1" d="M109.3726,362.39209c1.6362-7.1142-1.396-12.2715-6.0142-16.3994-8.523-7.6201-11.3682-17.0156-10.9512-28.1826.646-17.294.8706-34.6143.835-51.9219-.0215-10.5781,2.9492-19.0166,13.3701-23.3628,1.7607-.7348,1.9102-1.9419,1.9102-3.5454-.0005-6.9736-.4219-13.999,2.7324-20.5781,1.3193-2.752-.9214-3.2324-2.7769-4.0571-6.3442-2.8233-6.6875-3.8121-3.5171-10.0977,12.7286-25.2319,27.1402-49.31009,48.7583-68.13279,15.0406-13.0952,31.7701-22.93611,52.18119-24.9922a29.71,29.71,0,0,1,7.438.32709c9.5552,1.43021,17.4341-1.61319,23.0039-9.42479,4.105-5.7568,9.7739-7.82521,16.2549-8.2783,14.1201-.9858,28.2783-1.1977,42.4194-.7895a17.39848,17.39848,0,0,1,15.8975,10.3003c1.3545,2.8256,2.8408,3.8305,6.0214,3.6958,10.8067-.4571,21.628-.7256,32.4424-.6748,3.6446.0175,5.6826-.8448,7.1387-4.4048,2.6465-6.4658,3.9326-6.7325,10.0049-3.4693,24.3174,13.0679,47.2851,27.9712,65.4238,49.209,11.836,13.8545,20.5723,29.3906,23.9492,47.52539,1.0362,5.5635,1.5274,11.2202-.455,16.7534-.1631.4571-.5772,1.0576-.4229,1.3604,3.002,5.8896,2.7725,13.5698,9.415,17.4419,5.8858,3.4306,8.4248,8.8984,9.0205,15.27,1.3985,14.9385,1.2315,29.9336.8116,44.9077-.1944,6.9512-4.1328,11.8623-10.253,14.7949-2.8398,1.3614-3.7431,3.0078-3.6386,6.1485.4365,13.1357.71291,26.2832.707,39.4257-.002,3.4122,2.4932,3.1124,4.1943,3.8213,3.6338,1.5176,4.8721,3.6563,3.1153,7.3946-11.8692,25.2548-25.334,49.4707-45.6621,69.1045-13.60359,13.1367-29.0703,23.2177-47.7871,27.5068-4.378,1.0029-8.875,1.6758-13.3614.7715-4.6806-.9444-8.1689,2.3388-12.3379,3.1826a25.88855,25.88855,0,0,0-14.7568,8.3633c-6.1396,6.8711-14.5332,8.0615-23.3105,7.8437-18.1172-.4521-36.2378-.789-54.3584-1.1191-10.0469-.1826-18.3877-3.2158-22.2876-13.416-.92289-2.4112-2.564-2.1582-4.3746-2.17-5.9804-.04-12.0629.4991-17.6938-2.1132-2.2031-1.0205-2.1992.8681-2.6831,1.7558-5.8833,10.7774-5.87839,10.8223-16.41209,4.7295-22.5938-13.0674-43.8189-27.8799-60.4434-48.3828-11.5952-14.3008-19.9697-30.1826-22.8711-48.5928C109.6357,367.30229,109.5659,364.62839,109.3726,362.39209Zm235.03369,37.8965c.1279-.0557.76071-.123.8925-.417,3.0274-6.708,9.6475-9.873,14.6026-14.6338,11.5595-11.1074,22.6201-22.5293,30.4199-36.7363,2.0273-3.6924,1.748-8.4219,5.6025-11.3858.9864-.7578,1.1719-3.5136-1.2812-4.4414-11.6387-4.4023-14.042-13.8769-14.0664-24.9511-.03519-15.6465.1699-31.3296-.8369-46.9253-.834-12.9331,1.2685-24.1621,11.80071-32.6563,2.92289-2.3579,3.00879-4.6235.67779-7.5801-6.3897-8.1005-12.7783-16.1923-19.6475-23.89739-8.7344-9.7974-18.61229-18.0464-30.90329-23.0625-1.52051-.6211-2.97071-2.3853-4.34181.5908-4.2578,9.2339-12.28219,11.90579-21.7246,12.0747-13.6387.24509-27.2744.6826-40.91359.959-7.14941.1445-14.32811.5132-21.44871.0674-8.1416-.5098-14.0752-5.4507-19.3355-11.2774-2.1762-2.4116-4.40279-3.8852-7.622-1.1303-8.8511,7.5742-17.9292,14.8906-26.0415,23.28319-8.12109,8.4013-15.77349,17.2075-20.354,28.1176-1.2593,2.9996-1.8511,5.9795-5.6084,6.8155-1.9756.4394-1.5645,2.2661-1.5762,3.7241-.0654,8.3271.0469,16.6602-.2608,24.978-.123,3.333.9844,5.0923,3.9585,6.5025,6.5811,3.1215,9.9463,8.5527,10.2994,15.8559.6845,14.1406.2744,28.2803-.231,42.4112-.1865,5.1923-1.4121,10.1259-5.106,14.247-2.0498,2.2881-6.7514,3.0723-6.2885,6.1875.4306,2.9033,3.6225,5.3985,5.6059,8.0674.4961.668,1.0176,1.3174,1.5274,1.9746,10.229,13.1983,20.96189,25.9151,35.09419,35.1963,4.9941,3.2803,10.271,6.1094,16.4956,6.2363,6.9927.1416,13.9907.1065,20.9761.3994,3.1899.1338,4.9848-.6865,6.4717-3.8505a17.137,17.137,0,0,1,15.8789-10.2852c12.3203-.2344,24.6513-.1094,36.9717.1299,9.40721.1826,18.2958,1.6816,23.40721,11.2119C338.78029,398.47319,341.33009,399.72809,344.40629,400.28859ZM244.397,463.21049c2.727,5.4218,7.458,6.2959,12.58639,6.4384,17.4663.4864,34.9453.7032,52.39161,1.5958,9.36429.4785,17.002-1.9864,22.98339-9.3008,2.7314-3.3418,6.209-5.0205,10.6025-5.8428,9.5987-1.7959,18.1602-5.0938,19.1153-17.0791.29681-3.7275,1.9677-7.3584,3.1142-11.001a4.77257,4.77257,0,0,0-.956-5.042c-3.69439-4.2832-7.2119-8.7197-10.9053-13.0058-.7373-.8575-1.1836-2.1631-3.12209-1.6856-8.59761,2.1192-15.03121-.3379-19.93161-7.5771-2.7891-4.1211-6.3379-6.8799-11.3838-7.0391-12.9727-.4082-25.9492-.7627-38.9268-.9121-4.10979-.0469-7.6894,1.4678-9.9775,6.7324,7.1279,0,13.55571.1182,19.9756-.0547,2.8223-.0761,4.1123.375,4.20511,3.7129.10539,3.7774-.959,4.75-4.71491,4.6289-23.2632-.7539-46.5346-1.2295-69.8012-1.8681-5.7115-.1563-9.4434,1.8681-9.7203,5.6015-.2695,3.6465,2.691,5.5196,8.9986,5.3252,18.3227-.5664,36.602,1.292,54.9101.8897,4.0249-.0879,3.5562,2.039,3.7329,4.624.2022,2.9512-.8339,3.5117-3.67719,3.4287-20.061-.5869-40.12791-.9726-60.19391-1.3867a40.55655,40.55655,0,0,0-5.9853.2627c-3.7046.4765-6.5332,2.2949-6.1787,6.3935.33691,3.8887,3.646,4.3438,6.7598,4.335,2.9838-.0088,5.9716-.5264,8.9482-.4434,18.4556.5137,36.9072,1.2325,55.3662,1.628,3.356.0713,4.5176.7177,4.5645,4.3281.0517,4.0127-2.1372,3.6953-4.7256,3.6416-16.9746-.3535-33.95319-.5518-50.9219-1.0908-4.69629-.1494-5.03029,3.4101-5.7402,6.1035-.7305,2.7734,2.3755,3.1572,4.27191,3.7773a17.74323,17.74323,0,0,0,4.939.4786q23.69968.68835,47.40039,1.3193c2.4282.0644,4.6045-.0645,4.3633,3.5937-.2041,3.0957-.6978,4.71-4.4463,4.5879C263.18459,463.01029,254.03519,463.21049,244.397,463.21049ZM302.38669,107.7007c-2.51269-5.7856-6.6289-6.4297-10.8252-6.3984-12.14649.0908-24.2934.3266-36.43749.6421-4.07861.1054-8.51761.8867-10.58931,4.56779-4.5904,8.16021-12.24269,10.97221-20.4722,12.65481-6.6631,1.3613-9.2012,5.3589-11.7163,11.4175-4.6079,11.0981-3.8276,19.9448,5.3472,28.2056,3.6977,3.3305,5.7275,8.3789,12.30461,6.0664,2.43849-.857,5.15189.9326,7.20809,2.7431,2.1191,1.8648,4.2426,3.74559,6.1772,5.795a18.87543,18.87543,0,0,0,14.6943,6.2573q30.1824-.7749,60.357-1.8408c4.5566-.1582,8.1015-2.1778,9.85541-6.2491-9.791,0-19.39061-.12981-28.98241.0723-3.2431.0684-3.4492-1.5127-3.39159-3.9663.05179-2.2402-.30371-4.0493,3.168-4.0689q16.96439-.0951,33.91989-.91991c6.9727-.34569,13.9785.59281,20.919-.65039,2.8535-.5117,5.3476-1.6494,5.2998-4.91261-.0459-3.101-2.4034-4.74169-5.1895-5.22949a40.75379,40.75379,0,0,0-7.94919-.4404c-15.80271.37989-31.60451.7876-47.40241,1.3345-2.7021.0937-3.6757-.7993-3.1933-3.3472.3398-1.7905-1.3389-4.5425,2.5615-4.6128,16.7783-.3008,33.5527-.7524,50.3301-1.1333,5.4902-.125,11.0019.0332,16.4678-.3945,3.0556-.2393,6.1005-1.5244,5.7461-5.521-.3272-3.6831-3.002-4.9292-6.3096-5.0371-2.82719-.0918-5.66119-.0703-8.4903.0024-18.9443.4893-37.8906.96289-56.833,1.5596-2.8867.0908-4.2558-.4648-4.1045-3.773.1319-2.8754.2881-4.4399,3.9737-4.4526,14.6396-.0508,29.2783-.4707,43.915-.82711,5.1514-.125,10.3164-.26959,15.4395-.77789,2.6152-.2597,4.8496-1.7754,4.6308-4.9018-.2226-3.1665-2.2265-4.6079-5.3515-4.7368-3.13089-.1299-6.2608-.6338-9.38189-.5616-21.78811.5088-43.57811,1.0303-65.35931,1.8077-3.253.1162-4.47069-.4053-4.5069-3.8179-.0332-3.1821.375-4.8482,4.2241-4.647C288.85839,107.9448,295.30659,107.7007,302.38669,107.7007Zm93.2119,214.99319c0-9.5938.0049-18.7315-.0039-27.8682-.0009-1.9893-1.1035-4.708,2.7139-4.1357,2.5166.3769,6.2441-1.7276,6.0977,3.7295-.4356,16.2802,1.5693,32.5586.1806,48.8535-.1826,2.1416-.4062,4.3154.5908,6.3789,1.0928,2.2637,2.6866,4.0224,5.3467,3.7002,2.9863-.3614,4.2578-2.7237,4.1524-5.3916-.1573-3.961.3818-7.8828.4091-11.7793.0957-13.7998-.37689-27.6065-.79-41.4063-.08689-2.9033.1553-4.1338,3.7568-4.4795,5.0186-.4785,4.9424,2.2012,4.9649,5.503.1357,20.5908,1.27441,41.1699.7099,61.7714-.0996,3.6377.335,7.3624,5.0801,7.7227,3.2451.2471,5.5498-3.4375,5.418-8.2002-.082-2.9853-.4111-5.9658-.46-8.9512-.2959-18.1093-.5263-36.2197-.8291-54.3291-.039-2.3447-.167-4.3916,3.22951-4.0107,2.59569.2891,5.44439-1.0244,5.44629,3.8486.0088,16.4698.4404,32.9414.9541,49.4053.1162,3.7461,1.1553,7.4736,1.8721,11.1895.4179,2.1699,2.0254,2.9511,4.0713,2.8417a3.4223,3.4223,0,0,0,3.4043-3.0888,43.8593,43.8593,0,0,0,.6797-7.335c-.3321-22.7929-.6602-45.5898-1.2227-68.3799-.0947-3.8403.91991-4.7509,4.7842-4.998,4.5166-.2881,3.249,2.3384,3.5283,4.6074.7969,6.4795-.335,13.0928,1.0576,19.8858,4.4004-2.6133,5.88181-6.2872,5.8565-10.6788-.0674-11.9868-.1465-23.9746-.3506-35.9594-.084-4.979-1.1582-9.8716-5.7744-12.5904-5.1075-3.0053-7.7266-7.5722-9.7071-12.788-1.415-3.7251-2.9697-7.4014-4.2549-11.1695a6.42914,6.42914,0,0,0-4.7041-4.5376c-6.84759-1.9287-13.68059-7.2158-20.2021-5.9106-6.0703,1.2168-11.1484,7.3877-16.6611,11.3813-.8067.585-1.5577,1.2588-2.4073,1.7696a2.02122,2.02122,0,0,0-.9756,2.9253c3.7061,7.1943-.0986,12.0551-5.1728,16.4179-5.72269,4.9204-8.0322,11.0825-7.7656,18.565.4394,12.3003.5732,24.6113.8564,36.9189.168,7.3164.2256,14.6406.626,21.9453C390.31049,317.82959,391.96,321.01029,395.59859,322.69389ZM172.0698,276.21779c0,7.5249-.1318,14.0151.0547,20.4966.0957,3.3252-.2881,5.0537-4.4551,4.9922-4.8579-.0703-3.3012-3.2315-3.2959-5.4434q.0858-35.4492.4151-70.8994c.0346-3.8491-1.0235-6.7861-5.2925-6.8994-4.3223-.1153-4.8286,3.103-4.8809,6.5244-.2837,18.6392-.6987,37.2773-.8335,55.917-.0244,3.3623-1.0952,4.0303-4.2397,4.1064-3.4072.0801-4.0288-1.0683-3.9551-4.1982.3716-15.8115.5342-31.6289.7227-47.4443.0708-5.9351.1953-11.8794-.0567-17.8047-.1391-3.2749-1.8681-5.9053-5.6137-5.6661-3.1348.2002-5.2759,2.9058-4.7832,5.4375,1.4272,7.3252-.439,14.48-.2828,21.7232.3101,14.3144-.0913,28.646-.2436,42.9692-.0298,2.8076-.3408,4.9463-4.3882,4.8467-4.0015-.0996-4.0566-1.9473-4.0112-4.9365.2607-17.1494.4614-34.3013.4941-51.4526.0064-3.3355-.5503-7.2002-5.1382-7.1163-4.2719.0772-4.3891,3.8169-4.8496,6.9522a15.7796,15.7796,0,0,0-.0678,1.9961c-.2808,16.313-.6446,32.6255-.773,48.9399-.0283,3.5528-.4409,5.4414-4.7993,5.4453-4.7334.002-3.417-2.9804-3.4375-5.3164-.0816-9.2138-.0337-18.4292-.0337-28.0962-5.1558,2.4649-6.1397,6.6441-6.2207,10.9956-.3438,18.4795-.2251,36.9717-.8608,55.4385-.293,8.5069,2.0297,15.3252,8.6201,20.6905,3.5923,2.9257,6.1093,6.4726,6.6714,11.2675.3364,2.8662,2.0468,4.5059,4.957,5.4707,6.7705,2.2451,13.4243,4.8506,20.084,7.416,1.997.7696,3.5361.8624,5.4204-.5937,4.6045-3.5566,9.417-6.8516,14.2202-10.1436a6.41393,6.41393,0,0,0,3.0835-4.2627c.981-5.2001,3.9424-9.0205,8.3584-11.8759a12.47448,12.47448,0,0,0,6.0293-10.8506c.1855-12.6494.5361-25.2979.5576-37.9483C179.2534,282.563,177.29,278.98589,172.0698,276.21779ZM194.2012,121.6216a88.34929,88.34929,0,0,0-27.0259,14.0425c-21.4878,15.8838-36.2564,37.2314-48.8511,60.32709-6.6138,12.1285-6.5825,12.0718,6.4595,16.5762,2.2988.794,3.0688.3369,3.7676-1.9145,1.8183-5.8609,6.2939-9.1338,12.0747-9.7422,5.5356-.583,9.2383,2.977,11.8813,7.5927.6372,1.1133.9868,2.0957,2.9141,1.8409,10.0801-1.334,13.5063.8422,17.6474,10.7319,8.1817-15.2363,19.8775-27.48679,32.58889-38.78709,3.0191-2.6831,2.4116-4.0357.2017-6.5181-6.8526-7.7002-13.41409-15.6611-20.29009-23.33881-1.9629-2.191-2.1943-3.94579-1.0605-6.60839C187.7935,138.1138,190.7656,130.271,194.2012,121.6216Zm17.68889,276.63669c-12.4575-9.1982-22.76269-20.0322-32.11419-31.7969-1.5611-1.9638-2.6206-1.7373-4.4009-.331-8.1011,6.3935-16.4785,12.4502-24.3955,19.0615-3.2588,2.7197-5.7725,2.7012-9.3281.919-7.0274-3.5205-14.2842-6.585-22.2925-10.2227,2.978,12.0654,8.2978,21.751,14.7466,30.8496,15.6445,22.0742,36.852,37.711,59.7822,51.3262,7.78519,4.623,7.76269,4.6387,10.977-3.8623,1.21931-3.2256.61631-6.6074.5284-9.8486-.0694-2.5586-3.3658-2.085-5.1343-3.0948-6.63969-3.791-9.78709-12.6885-5.00929-17.7148,4.36279-4.5908,7.377-8.6602,7.28419-15.4375C202.46529,403.19,207.40819,400.61669,211.89009,398.25829Zm185.3306-45.1113a157.13214,157.13214,0,0,1-29.4492,35.7139c-2.7891,2.5683-2.7402,3.8701-.1602,6.5224,6.1446,6.3203,11.6309,13.2901,17.8731,19.5039,4.3017,4.2813,5.3838,8.1895,2.6748,13.8594-2.9551,6.1836-4.8867,12.8545-7.4893,19.9229a65.52834,65.52834,0,0,0,19.3057-9.4336c27.6328-18.6612,44.39741-45.835,58.4697-75.083.4209-.877,1.1631-1.7491.13671-2.668-1.04291-.9346-1.80951-.1475-2.57321.4951-3.4844,2.9365-7.2715,4.6064-11.9229,3.0381-1.666-.5615-2.6738.2754-3.7187,1.6396-8.3154,10.8555-18.1426,9.9454-24.1406-2.2627-.93559-1.9062-1.8565-2.8339-4.0889-2.5693C405.39159,362.62549,400.59669,359.65869,397.22069,353.147Zm-34.0889-247.583c-.5517,1.8984-.0527,2.3369.49321,2.709,5.32129,3.63619,8.04389,8.3291,5.98049,14.9023-.5108,1.625.2793,2.2925,1.5,3.1597,11.8174,8.3965,10.8164,17.8437-2.5967,24.1045-1.42379.665-2.291,1.1582-1.9971,2.7895,1.6914,9.3975-3.042,14.541-12.1865,17.1006A169.61284,169.61284,0,0,1,386.332,201.06979c1.88769,2.3218,3.086,1.4366,4.81059.0284,7.9892-6.51859,16.1543-12.82669,24.0176-19.49269,2.7597-2.34031,4.8867-2.8521,8.2939-1.19731,7.3535,3.57081,14.9902,6.55721,23.5527,10.22951-7.1787-23.6387-21.5459-40.7158-38.9463-55.5566A229.23878,229.23878,0,0,0,363.13179,105.564ZM117.6094,365.04349a4.03691,4.03691,0,0,0,2.7329,4.5537q11.3964,5.001,22.6523,10.3193a4.47215,4.47215,0,0,0,5.4068-.5605q11.5224-9.1407,23.2426-18.0293c1.7754-1.3506,2.3233-2.3369.7784-4.3682-1.5596-2.0527-2.6382-1.6826-4.4131-.3769-6.0225,4.4316-12.2481,8.5888-18.2256,13.0781a8.00581,8.00581,0,0,1-8.7485,1.1328c-6.7486-2.7744-13.6499-5.1787-20.4869-7.7412C118.7295,362.36969,117.1978,362.11569,117.6094,365.04349ZM421.74609,194.9751c.9658.3194,2.37891.76709,3.7793,1.2534,6.5713,2.27739,13.1973,4.41559,19.6855,6.91069,3.2237,1.2388,3.66311.2456,3.459-2.7256-.1523-2.2231-1.2002-3.12449-3.0644-3.91259-7.6319-3.2202-15.2461-6.4902-22.7774-9.938-2.1572-.9873-3.6006-.6553-5.3447.78419-7.5537,6.23441-15.1943,12.3642-22.834,18.4936-1.52539,1.2232-2.7236,2.1255-.98239,4.313,1.63669,2.0562,2.82029,2.0952,4.80179.5772,6.0576-4.645,12.2431-9.125,18.3583-13.6968A7.77569,7.77569,0,0,1,421.74609,194.9751Zm-54.919,256.60259c5.543-.3038,5.5801-.2901,7.21391-4.6202,2.63669-6.9863,5.17679-14.0117,7.85259-20.9834.8339-2.1748.9609-3.8496-.8653-5.7929-6.375-6.7832-12.5-13.8018-18.8008-20.6573-1.1504-1.2529-1.8828-3.6728-4.64349-1.4355-3.09861,2.5107-.27931,3.7578.75979,5.0625q6.5229,8.19135,13.4433,16.0615c2.4326,2.7598,3.1377,5.3867,1.915,9.0469C371.18159,435.79929,369.17089,443.50929,366.82709,451.57769ZM207.40529,120.8296c.22071-1.5766-.4678-1.8042-1.7378-1.5932-2.1113.3515-4.0318.4179-5.0064,3.0913-2.893,7.9404-6.02779,15.7978-9.28709,23.5966-.7988,1.9102-.3623,2.9732.8448,4.3628q9.82169,11.30713,19.477,22.7559c1.2881,1.5264,2.17721,1.9385,3.9897.5117,1.9854-1.5644,1.8448-2.62651.3721-4.3804-2.99659-3.5649-5.3999-7.7265-8.7744-10.8579-7.415-6.8828-8.8975-14.2705-4.3638-23.4131C205.10209,130.5015,205.97849,125.45219,207.40529,120.8296Z"/><path class="cls-2" d="M244.397,463.21049c9.63819,0,18.78759-.2002,27.92039.0976,3.7485.1221,4.2422-1.4922,4.4463-4.5879.2412-3.6582-1.9351-3.5293-4.3633-3.5937q-23.7012-.62985-47.40039-1.3193a17.74323,17.74323,0,0,1-4.939-.4786c-1.89641-.6201-5.00241-1.0039-4.27191-3.7773.70991-2.6934,1.04391-6.2529,5.7402-6.1035,16.96871.539,33.9473.7373,50.9219,1.0908,2.5884.0537,4.7773.3711,4.7256-3.6416-.0469-3.6104-1.2085-4.2568-4.5645-4.3281-18.459-.3955-36.9106-1.1143-55.3662-1.628-2.9766-.083-5.9644.4346-8.9482.4434-3.1138.0088-6.42289-.4463-6.7598-4.335-.3545-4.0986,2.4741-5.917,6.1787-6.3935a40.55655,40.55655,0,0,1,5.9853-.2627c20.066.4141,40.13291.7998,60.19391,1.3867,2.84329.083,3.87939-.4775,3.67719-3.4287-.1767-2.585.292-4.7119-3.7329-4.624-18.3081.4023-36.5874-1.4561-54.9101-.8897-6.3076.1944-9.2681-1.6787-8.9986-5.3252.2769-3.7334,4.0088-5.7578,9.7203-5.6015,23.2666.6386,46.538,1.1142,69.8012,1.8681,3.75591.1211,4.8203-.8515,4.71491-4.6289-.09281-3.3379-1.38281-3.789-4.20511-3.7129-6.41989.1729-12.8477.0547-19.9756.0547,2.2881-5.2646,5.86771-6.7793,9.9775-6.7324,12.9776.1494,25.9541.5039,38.9268.9121,5.0459.1592,8.5947,2.918,11.3838,7.0391,4.9004,7.2392,11.334,9.6963,19.93161,7.5771,1.93849-.4775,2.38479.8281,3.12209,1.6856,3.6934,4.2861,7.21091,8.7226,10.9053,13.0058a4.77257,4.77257,0,0,1,.956,5.042c-1.1465,3.6426-2.81739,7.2735-3.1142,11.001-.9551,11.9853-9.5166,15.2832-19.1153,17.0791-4.3935.8223-7.8711,2.501-10.6025,5.8428-5.98139,7.3144-13.6191,9.7793-22.98339,9.3008-17.44631-.8926-34.92531-1.1094-52.39161-1.5958C251.855,469.50639,247.124,468.63229,244.397,463.21049Z"/><path class="cls-2" d="M302.38669,107.7007c-7.0801,0-13.5283.2441-19.9468-.0918-3.8491-.2012-4.2573,1.4649-4.2241,4.647.03621,3.4126,1.2539,3.9341,4.5069,3.8179,21.7812-.7774,43.5712-1.2989,65.35931-1.8077,3.12109-.0722,6.251.4317,9.38189.5616,3.125.1289,5.1289,1.5703,5.3515,4.7368.2188,3.1264-2.0156,4.6421-4.6308,4.9018-5.1231.5083-10.2881.65289-15.4395.77789-14.6367.35641-29.2754.77631-43.915.82711-3.6856.0127-3.8418,1.5772-3.9737,4.4526-.1513,3.3082,1.2178,3.8638,4.1045,3.773,18.9424-.59671,37.8887-1.0703,56.833-1.5596,2.82911-.0727,5.66311-.0942,8.4903-.0024,3.3076.1079,5.9824,1.354,6.3096,5.0371.3544,3.9966-2.6905,5.2817-5.7461,5.521-5.4659.4277-10.9776.2695-16.4678.3945-16.7774.3809-33.5518.8325-50.3301,1.1333-3.9004.0703-2.2217,2.8223-2.5615,4.6128-.4824,2.5479.4912,3.4409,3.1933,3.3472,15.7979-.5469,31.5997-.95461,47.40241-1.3345a40.75379,40.75379,0,0,1,7.94919.4404c2.7861.4878,5.1436,2.12849,5.1895,5.22949.0478,3.26321-2.4463,4.40091-5.2998,4.91261-6.9405,1.2432-13.9463.3047-20.919.65039q-16.94383.83941-33.91989.91991c-3.47171.0196-3.11621,1.8287-3.168,4.0689-.05761,2.4536.14849,4.0347,3.39159,3.9663,9.5918-.20211,19.19141-.0723,28.98241-.0723-1.75391,4.0713-5.29881,6.0909-9.85541,6.2491q-30.1743,1.0473-60.357,1.8408a18.87543,18.87543,0,0,1-14.6943-6.2573c-1.9346-2.04941-4.0581-3.9302-6.1772-5.795-2.0562-1.8105-4.7696-3.6001-7.20809-2.7431-6.57711,2.3125-8.60691-2.7359-12.30461-6.0664-9.1748-8.2608-9.9551-17.1075-5.3472-28.2056,2.5151-6.0586,5.0532-10.0562,11.7163-11.4175,8.22951-1.6826,15.8818-4.4946,20.4722-12.65481,2.0717-3.68109,6.5107-4.46239,10.58931-4.56779,12.14409-.3155,24.291-.5513,36.43749-.6421C295.75779,101.271,299.874,101.9151,302.38669,107.7007Z"/><path class="cls-2" d="M395.59859,322.69389c-3.63859-1.6836-5.2881-4.8643-5.4941-8.627-.4004-7.3047-.458-14.6289-.626-21.9453-.2832-12.3076-.417-24.6186-.8564-36.9189-.2666-7.4825,2.04291-13.6446,7.7656-18.565,5.0742-4.3628,8.8789-9.2236,5.1728-16.4179a2.02122,2.02122,0,0,1,.9756-2.9253c.8496-.5108,1.6006-1.1846,2.4073-1.7696,5.5127-3.9936,10.5908-10.1645,16.6611-11.3813,6.52151-1.3052,13.35451,3.9819,20.2021,5.9106a6.42914,6.42914,0,0,1,4.7041,4.5376c1.2852,3.7681,2.8399,7.4444,4.2549,11.1695,1.9805,5.2158,4.5996,9.7827,9.7071,12.788,4.6162,2.7188,5.6904,7.6114,5.7744,12.5904.2041,11.9848.2832,23.9726.3506,35.9594.02531,4.3916-1.4561,8.0655-5.8565,10.6788-1.3926-6.793-.2607-13.4063-1.0576-19.8858-.2793-2.269.9883-4.8955-3.5283-4.6074-3.86429.2471-4.8789,1.1577-4.7842,4.998.5625,22.7901.8906,45.587,1.2227,68.3799a43.8593,43.8593,0,0,1-.6797,7.335,3.4223,3.4223,0,0,1-3.4043,3.0888c-2.0459.1094-3.6534-.6718-4.0713-2.8417-.7168-3.7159-1.7559-7.4434-1.8721-11.1895-.5137-16.4639-.9453-32.9355-.9541-49.4053-.0019-4.873-2.8506-3.5595-5.44629-3.8486-3.39651-.3809-3.26851,1.666-3.22951,4.0107.3028,18.1094.5332,36.2198.8291,54.3291.0489,2.9854.378,5.9659.46,8.9512.1318,4.7627-2.1729,8.4473-5.418,8.2002-4.7451-.3603-5.1797-4.085-5.0801-7.7227.56451-20.6015-.5742-41.1806-.7099-61.7714-.0225-3.3018.0537-5.9815-4.9649-5.503-3.6015.3457-3.84369,1.5762-3.7568,4.4795.41311,13.7998.8857,27.6065.79,41.4063-.0273,3.8965-.5664,7.8183-.4091,11.7793.1054,2.6679-1.1661,5.0302-4.1524,5.3916-2.6601.3222-4.2539-1.4365-5.3467-3.7002-.997-2.0635-.7734-4.2373-.5908-6.3789,1.3887-16.2949-.6162-32.5733-.1806-48.8535.1464-5.4571-3.5811-3.3526-6.0977-3.7295-3.8174-.5723-2.7148,2.1464-2.7139,4.1357C395.60349,303.96239,395.59859,313.10009,395.59859,322.69389Z"/><path class="cls-2" d="M172.0698,276.21779c5.2202,2.7681,7.1836,6.3452,7.1758,10.6772-.0215,12.6504-.3721,25.2989-.5576,37.9483a12.47448,12.47448,0,0,1-6.0293,10.8506c-4.416,2.8554-7.3774,6.6758-8.3584,11.8759a6.41393,6.41393,0,0,1-3.0835,4.2627c-4.8032,3.292-9.6157,6.587-14.2202,10.1436-1.8843,1.4561-3.4234,1.3633-5.4204.5937-6.6597-2.5654-13.3135-5.1709-20.084-7.416-2.9102-.9648-4.6206-2.6045-4.957-5.4707-.5621-4.7949-3.0791-8.3418-6.6714-11.2675-6.5904-5.3653-8.9131-12.1836-8.6201-20.6905.6357-18.4668.517-36.959.8608-55.4385.081-4.3515,1.0649-8.5307,6.2207-10.9956,0,9.667-.0479,18.8824.0337,28.0962.0205,2.336-1.2959,5.3184,3.4375,5.3164,4.3584-.0039,4.771-1.8925,4.7993-5.4453.1284-16.3144.4922-32.6269.773-48.9399a15.7796,15.7796,0,0,1,.0678-1.9961c.4605-3.1353.5777-6.875,4.8496-6.9522,4.5879-.0839,5.1446,3.7808,5.1382,7.1163-.0327,17.1513-.2334,34.3032-.4941,51.4526-.0454,2.9892.0097,4.8369,4.0112,4.9365,4.0474.0996,4.3584-2.0391,4.3882-4.8467.1523-14.3232.5537-28.6548.2436-42.9692-.1562-7.2432,1.71-14.398.2828-21.7232-.4927-2.5317,1.6484-5.2373,4.7832-5.4375,3.7456-.2392,5.4746,2.3912,5.6137,5.6661.252,5.9253.1275,11.8696.0567,17.8047-.1885,15.8154-.3511,31.6328-.7227,47.4443-.0737,3.1299.5479,4.2783,3.9551,4.1982,3.1445-.0761,4.2153-.7441,4.2397-4.1064.1348-18.6397.5498-37.2778.8335-55.917.0523-3.4214.5586-6.6397,4.8809-6.5244,4.269.1133,5.3271,3.0503,5.2925,6.8994q-.3165,35.4492-.4151,70.8994c-.0053,2.2119-1.562,5.3731,3.2959,5.4434,4.167.0615,4.5508-1.667,4.4551-4.9922C171.938,290.23289,172.0698,283.74269,172.0698,276.21779Z"/><path class="cls-3" d="M194.2012,121.6216c-3.4356,8.6494-6.4077,16.4922-9.6924,24.2022-1.1338,2.6626-.9024,4.41739,1.0605,6.60839,6.876,7.67771,13.43749,15.63861,20.29009,23.33881,2.2099,2.4824,2.8174,3.835-.2017,6.5181-12.71139,11.3003-24.40719,23.55079-32.58889,38.78709-4.1411-9.8897-7.5673-12.0659-17.6474-10.7319-1.9273.2548-2.2769-.7276-2.9141-1.8409-2.643-4.6157-6.3457-8.1757-11.8813-7.5927-5.7808.6084-10.2564,3.8813-12.0747,9.7422-.6988,2.2514-1.4688,2.7085-3.7676,1.9145-13.042-4.5044-13.0733-4.4477-6.4595-16.5762,12.5947-23.09569,27.3633-44.44329,48.8511-60.32709A88.34929,88.34929,0,0,1,194.2012,121.6216Z"/><path class="cls-4" d="M211.89009,398.25829c-4.4819,2.3584-9.4248,4.9317-9.3564,9.8477.0928,6.7773-2.9214,10.8467-7.28419,15.4375-4.7778,5.0263-1.6304,13.9238,5.00929,17.7148,1.7685,1.0098,5.0649.5362,5.1343,3.0948.08791,3.2412.69091,6.623-.5284,9.8486-3.2143,8.501-3.1918,8.4853-10.977,3.8623-22.9302-13.6152-44.1377-29.252-59.7822-51.3262-6.4488-9.0986-11.7686-18.7842-14.7466-30.8496,8.0083,3.6377,15.2651,6.7022,22.2925,10.2227,3.5556,1.7822,6.0693,1.8007,9.3281-.919,7.917-6.6113,16.2944-12.668,24.3955-19.0615,1.7803-1.4063,2.8398-1.6328,4.4009.331C189.1274,378.22609,199.43259,389.06009,211.89009,398.25829Z"/><path class="cls-5" d="M397.22069,353.147c3.376,6.5117,8.1709,9.4785,14.917,8.6787,2.2324-.2646,3.15331.6631,4.0889,2.5693,5.998,12.2081,15.8252,13.1182,24.1406,2.2627,1.0449-1.3642,2.0527-2.2011,3.7187-1.6396,4.6514,1.5683,8.4385-.1016,11.9229-3.0381.7637-.6426,1.5303-1.4297,2.57321-.4951,1.02639.9189.28419,1.791-.13671,2.668-14.07229,29.248-30.8369,56.4218-58.4697,75.083a65.52834,65.52834,0,0,1-19.3057,9.4336c2.6026-7.0684,4.5342-13.7393,7.4893-19.9229,2.709-5.6699,1.6269-9.5781-2.6748-13.8594-6.2422-6.2138-11.7285-13.1836-17.8731-19.5039-2.58-2.6523-2.6289-3.9541.1602-6.5224A157.13214,157.13214,0,0,0,397.22069,353.147Z"/><path class="cls-6" d="M363.13179,105.564a229.23878,229.23878,0,0,1,44.9287,29.5171c17.4004,14.8408,31.7676,31.9179,38.9463,55.5566-8.5625-3.6723-16.1992-6.6587-23.5527-10.22951-3.4072-1.65479-5.5342-1.143-8.2939,1.19731-7.8633,6.666-16.0284,12.9741-24.0176,19.49269-1.72459,1.4082-2.9229,2.2934-4.81059-.0284a169.61284,169.61284,0,0,0-32.00681-30.74019c9.1445-2.5596,13.8779-7.7031,12.1865-17.1006-.2939-1.6313.57331-2.1245,1.9971-2.7895,13.4131-6.2608,14.4141-15.708,2.5967-24.1045-1.2207-.8672-2.0108-1.5347-1.5-3.1597,2.0634-6.5732-.6592-11.26611-5.98049-14.9023C363.07909,107.9009,362.58009,107.4624,363.13179,105.564Z"/><path class="cls-4" d="M117.6094,365.04349c-.4116-2.9278,1.1201-2.6738,2.9389-1.9922,6.837,2.5625,13.7383,4.9668,20.4869,7.7412a8.00581,8.00581,0,0,0,8.7485-1.1328c5.9775-4.4893,12.2031-8.6465,18.2256-13.0781,1.7749-1.3057,2.8535-1.6758,4.4131.3769,1.5449,2.0313.997,3.0176-.7784,4.3682q-11.7063,8.90325-23.2426,18.0293a4.47215,4.47215,0,0,1-5.4068.5605q-11.24115-5.34075-22.6523-10.3193A4.03691,4.03691,0,0,1,117.6094,365.04349Z"/><path class="cls-6" d="M421.74609,194.9751a7.77569,7.77569,0,0,0-4.919,2.05909c-6.1152,4.5718-12.3007,9.0518-18.3583,13.6968-1.9815,1.518-3.1651,1.479-4.80179-.5772-1.74121-2.1875-.543-3.0898.98239-4.313,7.6397-6.1294,15.2803-12.25919,22.834-18.4936,1.7441-1.43949,3.1875-1.77149,5.3447-.78419,7.5313,3.4478,15.1455,6.7178,22.7774,9.938,1.8642.7881,2.9121,1.68949,3.0644,3.91259.20411,2.9712-.2353,3.9644-3.459,2.7256-6.4882-2.4951-13.1142-4.6333-19.6855-6.91069C424.125,195.74219,422.71189,195.2945,421.74609,194.9751Z"/><path class="cls-5" d="M366.82709,451.57769c2.3438-8.0684,4.3545-15.7784,6.875-23.3184,1.2227-3.6602.5176-6.2871-1.915-9.0469q-6.9228-7.85445-13.4433-16.0615c-1.0391-1.3047-3.8584-2.5518-.75979-5.0625,2.76069-2.2373,3.49309.1826,4.64349,1.4355,6.3008,6.8555,12.4258,13.8741,18.8008,20.6573,1.8262,1.9433,1.6992,3.6181.8653,5.7929-2.6758,6.9717-5.2159,13.9971-7.85259,20.9834C372.40719,451.28759,372.37009,451.27389,366.82709,451.57769Z"/><path class="cls-3" d="M207.40529,120.8296c-1.4268,4.62259-2.3032,9.6719-4.4859,14.0737-4.5337,9.1426-3.0512,16.5303,4.3638,23.4131,3.3745,3.1314,5.77781,7.293,8.7744,10.8579,1.4727,1.75389,1.6133,2.816-.3721,4.3804-1.81249,1.4268-2.7016,1.0147-3.9897-.5117q-9.6606-11.44485-19.477-22.7559c-1.2071-1.3896-1.6436-2.4526-.8448-4.3628,3.2593-7.7988,6.3941-15.6562,9.28709-23.5966.9746-2.6734,2.8951-2.7398,5.0064-3.0913C206.93749,119.0254,207.626,119.253,207.40529,120.8296Z"/></svg>